#!OML:ASF Y:\EmotionMaleHayes\Project 1\Capture day 1\Session 1\Male1.ASF
:FULLY-SPECIFIED
:DEGREES
865
root 9.40231 17.1857 2.51781 375.105 86.6406 380.181
lowerback 3.23239 3.28582 -4.2961
upperback 8.13642 4.82789 -1.4258
thorax 6.46574 2.32104 1.02606
lowerneck -15.0152 -1.26472 2.43479
upperneck 43.8329 1.24535 -2.84395
head 19.4713 1.28334 -1.32461
rclavicle -1.36167e-014 2.34566e-014
rhumerus 2.15377 43.3027 -80.0341
rradius 134.386
rwrist -8.41836
rhand -20.8143 -13.3454
rfingers 7.12502
rthumb 5.55366 -43.2526
lclavicle -1.36167e-014 2.34566e-014
lhumerus -10.9113 -81.4009 98.8678
lradius 93.8215
lwrist -15.6923
lhand -35.4857 -64.1682
lfingers 7.12502
lthumb -8.61349 -34.364
rfemur 6.25104 -5.78013 11.1251
rtibia 13.176
rfoot -16.4975 -3.8546
rtoes -12.5722
lfemur 7.03041 3.33482 -14.2859
ltibia 12.018
lfoot -13.4436 6.25712
ltoes -12.4387
866
root 9.39676 17.1756 2.54921 373.828 86.7467 378.847
lowerback 3.47616 3.30396 -4.1516
upperback 8.15332 4.84016 -1.41872
thorax 6.35376 2.34035 0.938339
lowerneck -15.1521 -1.27484 2.59771
upperneck 43.8341 1.19813 -2.93168
head 19.5108 1.27788 -1.40847
rclavicle -2.68359e-015 -4.37326e-015
rhumerus 1.92551 42.841 -80.3859
rradius 134.477
rwrist -8.745
rhand -20.507 -13.1961
rfingers 7.12502
rthumb 5.85037 -43.0953
lclavicle -2.68359e-015 -4.37326e-015
lhumerus -11.1037 -81.4511 98.9966
lradius 93.7988
lwrist -15.1178
lhand -34.7119 -64.621
lfingers 7.12502
lthumb -7.86676 -34.7874
rfemur 6.24928 -5.77325 11.4676
rtibia 13.1377
rfoot -16.6282 -3.97037
rtoes -11.975
lfemur 6.53763 3.44088 -14.0021
ltibia 12.8194
lfoot -13.6479 6.16221
ltoes -13.7718
867
root 9.39344 17.1686 2.58029 372.799 86.9138 377.776
lowerback 3.54013 3.29147 -4.04217
upperback 8.21952 4.82553 -1.39355
thorax 6.39498 2.33952 0.902549
lowerneck -14.8986 -1.18393 3.05929
upperneck 43.5744 1.29653 -3.25383
head 19.2763 1.34385 -1.62761
rclavicle 6.06293e-015 2.38542e-014
rhumerus 1.74061 42.5412 -80.6697
rradius 134.425
rwrist -8.47166
rhand -20.5147 -12.898
rfingers 7.12502
rthumb 5.84291 -42.7975
lclavicle 6.06293e-015 2.38542e-014
lhumerus -11.5694 -81.5278 99.4236
lradius 93.7903
lwrist -14.3253
lhand -33.1429 -65.1827
lfingers 7.12502
lthumb -6.35215 -35.298
rfemur 6.2682 -5.80379 11.7801
rtibia 13.0318
rfoot -16.6311 -4.12128
rtoes -11.9775
lfemur 6.09537 3.46843 -13.7426
ltibia 13.541
lfoot -13.8412 6.02867
ltoes -14.4851
868
root 9.38968 17.1642 2.60743 373.977 86.9841 378.888
lowerback 3.58449 3.31599 -3.96362
upperback 8.2434 4.86578 -1.48784
thorax 6.40839 2.36933 0.760267
lowerneck -14.8457 -1.25645 2.99531
upperneck 43.6278 1.06985 -2.92352
head 19.279 1.29248 -1.4984
rclavicle 2.18663e-014 -7.95139e-015
rhumerus 1.52327 42.2525 -81.0118
rradius 134.467
rwrist -8.34165
rhand -20.5025 -13.0145
rfingers 7.12502
rthumb 5.85471 -42.9136
lclavicle 2.18663e-014 -7.95139e-015
lhumerus -12.1011 -81.9689 99.8457
lradius 93.8305
lwrist -13.0194
lhand -33.8158 -64.7499
lfingers 7.12502
lthumb -7.00176 -34.8857
rfemur 6.20482 -5.88934 11.8735
rtibia 12.9783
rfoot -16.5932 -4.15355
rtoes -12.0837
lfemur 5.65416 3.50933 -13.7066
ltibia 14.1807
lfoot -14.0912 5.9377
ltoes -14.2932
869
root 9.37225 17.1607 2.63571 362.805 87.009 367.525
lowerback 3.80854 3.35681 -3.27131
upperback 8.14975 4.89047 -1.4052
thorax 6.22074 2.42292 0.4466
lowerneck -14.8921 -1.34237 2.947
upperneck 43.7126 0.880126 -2.74581
head 19.3359 1.23708 -1.44087
rclavicle 5.28767e-014 -3.89618e-014
rhumerus 1.17605 42.1243 -81.41
rradius 134.539
rwrist -8.31034
rhand -20.5847 -13.3211
rfingers 7.12502
rthumb 5.77533 -43.2224
lclavicle 5.28767e-014 -3.89618e-014
lhumerus -13.3699 -82.3603 100.978
lradius 93.8852
lwrist -11.7103
lhand -35.4965 -63.7221
lfingers 7.12502
lthumb -8.62395 -33.9182
rfemur 5.76518 -5.5869 12.9087
rtibia 13.1813
rfoot -16.6577 -4.50258
rtoes -12.1882
lfemur 4.96867 3.66448 -12.8376
ltibia 15.0079
lfoot -14.2792 5.90548
ltoes -14.6242
870
root 9.34118 17.157 2.67158 342.937 86.8149 347.448
lowerback 4.08264 3.35183 -2.29193
upperback 8.08435 4.84279 -1.05846
thorax 6.03614 2.44536 0.244545
lowerneck -14.8016 -1.3986 2.92271
upperneck 43.6355 0.820137 -2.81151
head 19.256 1.19703 -1.47965
rclavicle 2.76311e-014 -1.43125e-014
rhumerus 0.862131 42.0194 -81.6837
rradius 134.668
rwrist -8.62113
rhand -20.5231 -13.763
rfingers 7.12502
rthumb 5.83475 -43.6626
lclavicle 2.76311e-014 -1.43125e-014
lhumerus -14.4626 -82.4197 102.067
lradius 93.946
lwrist -10.7497
lhand -32.3412 -64.227
lfingers 7.12502
lthumb -5.57812 -34.3204
rfemur 5.14185 -4.90087 14.7258
rtibia 13.6088
rfoot -16.996 -5.22726
rtoes -11.7215
lfemur 4.06623 3.89285 -11.2199
ltibia 16.1401
lfoot -14.4178 5.79939
ltoes -15.2942
871
root 9.31732 17.1503 2.70489 333.602 86.7393 337.998
lowerback 4.24355 3.28343 -1.88228
upperback 8.14542 4.7407 -0.847398
thorax 6.02362 2.41258 0.228081
lowerneck -14.6853 -1.39941 2.86219
upperneck 43.4288 0.802966 -2.79965
head 19.0871 1.17092 -1.46432
rclavicle 3.10104e-014 -5.96354e-015
rhumerus 0.787385 41.8154 -81.8083
rradius 134.796
rwrist -8.94926
rhand -20.1458 -14.0048
rfingers 7.12502
rthumb 6.19901 -43.8941
lclavicle 3.10104e-014 -5.96354e-015
lhumerus -14.0353 -82.5004 101.68
lradius 93.982
lwrist -9.89436
lhand -32.5305 -63.2462
lfingers 7.12502
lthumb -5.7609 -33.3445
rfemur 4.84269 -4.71405 15.6474
rtibia 13.8824
rfoot -17.2873 -5.58202
rtoes -10.8964
lfemur 3.25522 4.02056 -10.3708
ltibia 17.2533
lfoot -14.6458 5.59416
ltoes -15.404
